# xmcd
#
# Track frame offsets:
#	150
#	13923
#	28475
#	43858
#	57688
#	73211
#	88708
#	105519
#	118579
#	131894
#	147947
#
# Disc length: 2165 seconds
#
# Revision: 5
# Processed by: cddbd v1.5.2PL0 Copyright (c) Steve Scherf et al.
# Submitted via: audiograbber 1.83.01
#
DISCID=ae08730b
DTITLE=Various Artist - Last Of The Breed, cd 1
DYEAR=2007
DGENRE=Country
TTITLE0=Willie Nelson, Merle Haggard, Ray Price - My Life's Been A Pleasure
TTITLE1=Willie Nelson, Merle Haggard - My Mary
TTITLE2=Willie Nelson, Merle Haggard - Back To Earth
TTITLE3=Ray Price w Vince Gill - Heartaches By The Number
TTITLE4=Willie Nelson, Merle Haggard - Mom And Dad's Waltz
TTITLE5=Willie Nelson, Merle Haggard, Ray Price - Some Other World
TTITLE6=Willie Nelson, Ray Price w Kris Kristofferson - Why Me
TTITLE7=Willie Nelson, Ray Price - Lost Highway
TTITLE8=Willie Nelson, Merle Haggard - I Love You A Thousand Ways
TTITLE9=Willie Nelson, Merle Haggard, Ray Price - Please Don't Leave Me Any Mor
TTITLE9=e Darlin'
TTITLE10=Willie Nelson, Merle Haggard, Ray Price - I Gotta Have My Baby Back
EXTD=YEAR: 2007
EXTT0=
EXTT1=
EXTT2=
EXTT3=
EXTT4=
EXTT5=
EXTT6=
EXTT7=
EXTT8=
EXTT9=
EXTT10=
PLAYORDER=
